<?xml version="1.0" encoding="utf-8"?>
<!-- Generator: Adobe Illustrator 23.0.2, SVG Export Plug-In . SVG Version: 6.00 Build 0)  -->
<svg version="1.1" id="Layer_1" xmlns="http://www.w3.org/2000/svg" xmlns:xlink="http://www.w3.org/1999/xlink" x="0px" y="0px"
	 viewBox="0 0 162 19" style="enable-background:new 0 0 162 19;" xml:space="preserve">
<style type="text/css">
	.st0{fill:#0D2428;}
	.st1{fill:#29B7EB;}
</style>
<g>
	<path class="st0" d="M0.04,0.87h1.69v4.35C2.11,4.8,2.56,4.48,3.07,4.27c0.51-0.21,1.07-0.32,1.67-0.32c1.38,0,2.45,0.46,3.21,1.38
		c0.77,0.92,1.15,2.19,1.15,3.8c0,2.15-0.43,3.75-1.29,4.79c-0.86,1.04-2.05,1.56-3.59,1.56c-0.37,0-0.75-0.03-1.14-0.08
		c-0.39-0.05-0.78-0.12-1.16-0.21c-0.38-0.09-0.73-0.19-1.07-0.31c-0.33-0.12-0.6-0.24-0.82-0.37V0.87 M1.73,13.57
		C2,13.73,2.35,13.87,2.81,14c0.45,0.13,0.94,0.19,1.45,0.19c0.41,0,0.8-0.07,1.17-0.22c0.37-0.15,0.71-0.4,1-0.76
		c0.29-0.36,0.53-0.85,0.7-1.46c0.17-0.61,0.26-1.4,0.26-2.35c0-0.41-0.04-0.86-0.12-1.34C7.2,7.58,7.04,7.13,6.82,6.71
		C6.59,6.29,6.27,5.95,5.87,5.68c-0.4-0.27-0.92-0.41-1.55-0.41c-0.34,0-0.66,0.06-0.98,0.16C3.03,5.54,2.75,5.69,2.51,5.88
		C2.27,6.07,2.08,6.3,1.94,6.56C1.8,6.83,1.73,7.12,1.73,7.44V13.57z"/>
	<path class="st0" d="M19.67,4.26v9.31l0.15,1.6h-1.52l-0.18-1.49h-0.04c-0.41,0.63-0.92,1.09-1.54,1.37
		c-0.61,0.29-1.25,0.43-1.91,0.43c-2.36,0-3.54-1.25-3.54-3.76V4.26h1.71v6.98c0,0.41,0.03,0.79,0.08,1.14
		c0.05,0.35,0.16,0.66,0.33,0.92c0.17,0.26,0.4,0.47,0.69,0.61c0.29,0.15,0.68,0.22,1.17,0.22c0.38,0,0.75-0.08,1.1-0.23
		c0.35-0.15,0.66-0.36,0.92-0.6c0.26-0.25,0.48-0.53,0.64-0.85c0.16-0.31,0.24-0.63,0.24-0.96V4.26H19.67"/>
	<path class="st0" d="M22.39,13.2c0.32,0.22,0.74,0.44,1.25,0.65c0.51,0.21,1.09,0.32,1.74,0.32c0.61,0,1.13-0.15,1.55-0.44
		c0.42-0.29,0.63-0.77,0.63-1.43c0-0.32-0.06-0.59-0.18-0.8c-0.12-0.21-0.28-0.4-0.48-0.55c-0.21-0.15-0.44-0.28-0.71-0.37
		c-0.27-0.1-0.57-0.18-0.89-0.25c-0.44-0.1-0.86-0.22-1.26-0.36c-0.4-0.14-0.75-0.32-1.05-0.55c-0.3-0.23-0.54-0.52-0.73-0.88
		c-0.18-0.36-0.27-0.81-0.27-1.35c0-0.54,0.1-1.02,0.31-1.43c0.21-0.41,0.48-0.75,0.81-1.01c0.34-0.26,0.72-0.46,1.16-0.59
		c0.44-0.13,0.9-0.2,1.38-0.2c0.79,0,1.5,0.15,2.12,0.44c0.62,0.29,1.13,0.64,1.53,1.03L28.3,6.43c-0.37-0.34-0.77-0.62-1.22-0.85
		c-0.45-0.22-0.95-0.34-1.5-0.34c-0.23,0-0.47,0.03-0.71,0.1c-0.24,0.07-0.46,0.16-0.65,0.3c-0.19,0.13-0.34,0.3-0.46,0.52
		c-0.12,0.21-0.17,0.47-0.17,0.78c0,0.32,0.06,0.59,0.19,0.8c0.12,0.21,0.29,0.39,0.5,0.54c0.21,0.15,0.46,0.27,0.75,0.36
		c0.29,0.1,0.58,0.19,0.89,0.27c0.4,0.12,0.79,0.25,1.19,0.4c0.39,0.15,0.75,0.34,1.06,0.57c0.32,0.23,0.57,0.53,0.77,0.89
		c0.2,0.36,0.3,0.82,0.3,1.37c0,0.54-0.1,1.02-0.29,1.43c-0.19,0.41-0.45,0.76-0.79,1.04c-0.34,0.29-0.74,0.5-1.21,0.65
		c-0.47,0.15-0.98,0.22-1.54,0.22c-0.44,0-0.86-0.04-1.25-0.11c-0.4-0.07-0.75-0.16-1.08-0.27c-0.32-0.11-0.6-0.22-0.82-0.34
		c-0.23-0.12-0.4-0.23-0.52-0.33L22.39,13.2"/>
	<path class="st0" d="M31.02,1.14c0-0.32,0.11-0.59,0.32-0.81C31.55,0.11,31.82,0,32.16,0c0.32,0,0.59,0.11,0.81,0.33
		c0.22,0.22,0.33,0.49,0.33,0.81c0,0.34-0.11,0.61-0.33,0.83c-0.22,0.22-0.5,0.33-0.83,0.33c-0.34,0-0.61-0.11-0.81-0.33
		C31.12,1.76,31.02,1.48,31.02,1.14 M31.3,15.17V4.26h1.71v10.91H31.3z"/>
	<path class="st0" d="M35.89,15.17V5.91l-0.11-1.65h1.47l0.2,1.58c0.42-0.62,0.94-1.08,1.55-1.41c0.61-0.32,1.27-0.48,1.99-0.48
		c1.14,0,2.01,0.32,2.6,0.94c0.59,0.63,0.89,1.57,0.89,2.83v7.44h-1.71V8.26c0-0.41-0.03-0.79-0.09-1.15
		c-0.06-0.36-0.16-0.67-0.32-0.93c-0.15-0.26-0.38-0.47-0.67-0.63c-0.29-0.15-0.67-0.23-1.12-0.23c-0.42,0-0.82,0.08-1.17,0.24
		c-0.36,0.16-0.67,0.37-0.93,0.62c-0.26,0.25-0.47,0.54-0.63,0.87c-0.15,0.33-0.23,0.66-0.23,0.98v7.16H35.89"/>
	<path class="st0" d="M51.88,3.95c1.02,0,1.81,0.25,2.37,0.75c0.56,0.5,0.83,1.16,0.83,1.98c0,0.54-0.1,1.01-0.3,1.41
		c-0.2,0.39-0.46,0.73-0.79,1.01c-0.33,0.28-0.71,0.51-1.13,0.69c-0.43,0.18-0.86,0.32-1.31,0.42c-0.45,0.1-0.89,0.16-1.33,0.2
		c-0.44,0.04-0.84,0.06-1.19,0.06c-0.12,0-0.22,0-0.31-0.01c-0.09-0.01-0.17-0.01-0.26-0.01c0.02,0.45,0.09,0.9,0.22,1.34
		c0.13,0.44,0.33,0.83,0.59,1.19c0.26,0.35,0.6,0.63,1,0.84c0.4,0.21,0.9,0.32,1.48,0.32c0.37,0,0.7-0.04,1-0.11
		c0.3-0.07,0.57-0.17,0.8-0.27c0.23-0.11,0.44-0.22,0.6-0.34c0.17-0.12,0.3-0.21,0.41-0.29l0.66,1.12c-0.13,0.12-0.31,0.25-0.54,0.4
		c-0.23,0.15-0.49,0.28-0.8,0.41c-0.31,0.13-0.65,0.23-1.02,0.32c-0.37,0.09-0.78,0.13-1.22,0.13c-0.86,0-1.6-0.14-2.22-0.42
		c-0.62-0.28-1.12-0.66-1.52-1.15c-0.4-0.49-0.69-1.08-0.87-1.77c-0.18-0.69-0.27-1.44-0.27-2.26c0-0.8,0.11-1.57,0.33-2.29
		c0.22-0.72,0.54-1.35,0.97-1.89c0.42-0.53,0.96-0.96,1.59-1.27C50.31,4.11,51.05,3.95,51.88,3.95 M53.49,6.87
		c0-0.51-0.16-0.91-0.47-1.21c-0.31-0.29-0.72-0.44-1.22-0.44c-0.59,0-1.09,0.13-1.5,0.37c-0.42,0.25-0.76,0.57-1.02,0.95
		c-0.26,0.39-0.46,0.81-0.58,1.27c-0.12,0.46-0.19,0.91-0.21,1.35c0.07,0,0.14,0,0.21,0.01c0.07,0.01,0.14,0.01,0.23,0.01
		c0.37,0,0.81-0.03,1.34-0.09c0.53-0.06,1.03-0.17,1.5-0.34c0.48-0.17,0.88-0.4,1.22-0.7C53.32,7.77,53.49,7.37,53.49,6.87z"/>
	<path class="st0" d="M57.35,13.2c0.32,0.22,0.74,0.44,1.25,0.65c0.51,0.21,1.09,0.32,1.74,0.32c0.61,0,1.13-0.15,1.55-0.44
		c0.42-0.29,0.63-0.77,0.63-1.43c0-0.32-0.06-0.59-0.18-0.8c-0.12-0.21-0.28-0.4-0.48-0.55c-0.21-0.15-0.44-0.28-0.71-0.37
		c-0.27-0.1-0.57-0.18-0.89-0.25c-0.44-0.1-0.86-0.22-1.26-0.36c-0.4-0.14-0.75-0.32-1.05-0.55c-0.3-0.23-0.54-0.52-0.72-0.88
		c-0.18-0.36-0.27-0.81-0.27-1.35c0-0.54,0.1-1.02,0.31-1.43c0.21-0.41,0.48-0.75,0.81-1.01c0.34-0.26,0.72-0.46,1.16-0.59
		c0.44-0.13,0.9-0.2,1.38-0.2c0.79,0,1.5,0.15,2.12,0.44c0.62,0.29,1.13,0.64,1.53,1.03l-0.99,1.01c-0.37-0.34-0.77-0.62-1.22-0.85
		c-0.45-0.22-0.95-0.34-1.5-0.34c-0.23,0-0.47,0.03-0.71,0.1c-0.24,0.07-0.46,0.16-0.65,0.3c-0.19,0.13-0.34,0.3-0.46,0.52
		c-0.12,0.21-0.18,0.47-0.18,0.78c0,0.32,0.06,0.59,0.19,0.8c0.12,0.21,0.29,0.39,0.5,0.54c0.21,0.15,0.46,0.27,0.75,0.36
		c0.29,0.1,0.58,0.19,0.89,0.27c0.4,0.12,0.79,0.25,1.19,0.4c0.39,0.15,0.75,0.34,1.06,0.57c0.32,0.23,0.57,0.53,0.77,0.89
		c0.2,0.36,0.3,0.82,0.3,1.37c0,0.54-0.1,1.02-0.29,1.43c-0.19,0.41-0.45,0.76-0.79,1.04c-0.34,0.29-0.74,0.5-1.21,0.65
		c-0.47,0.15-0.98,0.22-1.54,0.22c-0.44,0-0.86-0.04-1.25-0.11c-0.39-0.07-0.75-0.16-1.08-0.27c-0.32-0.11-0.6-0.22-0.82-0.34
		c-0.23-0.12-0.4-0.23-0.52-0.33L57.35,13.2"/>
	<path class="st0" d="M66.18,13.2c0.32,0.22,0.74,0.44,1.25,0.65c0.51,0.21,1.09,0.32,1.74,0.32c0.61,0,1.13-0.15,1.55-0.44
		c0.42-0.29,0.63-0.77,0.63-1.43c0-0.32-0.06-0.59-0.17-0.8c-0.12-0.21-0.28-0.4-0.48-0.55c-0.21-0.15-0.44-0.28-0.71-0.37
		c-0.27-0.1-0.57-0.18-0.89-0.25c-0.44-0.1-0.86-0.22-1.26-0.36c-0.4-0.14-0.75-0.32-1.05-0.55c-0.3-0.23-0.54-0.52-0.72-0.88
		c-0.18-0.36-0.27-0.81-0.27-1.35c0-0.54,0.1-1.02,0.31-1.43c0.2-0.41,0.48-0.75,0.81-1.01c0.34-0.26,0.72-0.46,1.16-0.59
		c0.44-0.13,0.9-0.2,1.38-0.2c0.79,0,1.5,0.15,2.12,0.44c0.62,0.29,1.13,0.64,1.53,1.03l-0.99,1.01c-0.37-0.34-0.77-0.62-1.22-0.85
		c-0.45-0.22-0.95-0.34-1.5-0.34c-0.23,0-0.47,0.03-0.71,0.1c-0.24,0.07-0.46,0.16-0.65,0.3c-0.19,0.13-0.35,0.3-0.46,0.52
		c-0.12,0.21-0.17,0.47-0.17,0.78c0,0.32,0.06,0.59,0.19,0.8c0.12,0.21,0.29,0.39,0.5,0.54c0.21,0.15,0.46,0.27,0.75,0.36
		c0.29,0.1,0.58,0.19,0.89,0.27c0.4,0.12,0.79,0.25,1.19,0.4c0.39,0.15,0.75,0.34,1.06,0.57c0.32,0.23,0.57,0.53,0.77,0.89
		c0.2,0.36,0.3,0.82,0.3,1.37c0,0.54-0.1,1.02-0.29,1.43c-0.19,0.41-0.45,0.76-0.79,1.04c-0.34,0.29-0.74,0.5-1.21,0.65
		c-0.47,0.15-0.98,0.22-1.54,0.22c-0.44,0-0.86-0.04-1.25-0.11c-0.4-0.07-0.75-0.16-1.08-0.27c-0.32-0.11-0.6-0.22-0.82-0.34
		c-0.23-0.12-0.4-0.23-0.52-0.33L66.18,13.2"/>
	<path class="st1" d="M77.29,6.21l0.68-0.68c0.64,0.5,1.27,1,1.88,1.49C80.46,7.52,81,8,81.46,8.45c0.16,0.15,0.29,0.29,0.4,0.44
		c0.1,0.15,0.15,0.3,0.15,0.46c0,0.09-0.02,0.19-0.07,0.3c-0.04,0.11-0.12,0.25-0.24,0.43c-0.15,0.21-0.36,0.46-0.65,0.77
		c-0.29,0.31-0.6,0.63-0.93,0.97c-0.34,0.34-0.68,0.67-1.02,1c-0.34,0.33-0.65,0.61-0.91,0.85L77.47,13l2.81-3.62L77.29,6.21
		 M81.33,6.21l0.68-0.68c0.64,0.5,1.27,1,1.88,1.49C84.5,7.52,85.04,8,85.5,8.45c0.16,0.15,0.29,0.29,0.4,0.44
		c0.1,0.15,0.15,0.3,0.15,0.46c0,0.09-0.02,0.19-0.07,0.3c-0.04,0.11-0.12,0.25-0.24,0.43c-0.15,0.21-0.36,0.46-0.65,0.77
		c-0.29,0.31-0.6,0.63-0.93,0.97c-0.34,0.34-0.68,0.67-1.02,1c-0.34,0.33-0.65,0.61-0.91,0.85L81.51,13l2.81-3.62L81.33,6.21z"/>
	<path class="st0" d="M90.47,13.2c0.32,0.22,0.74,0.44,1.25,0.65c0.51,0.21,1.09,0.32,1.74,0.32c0.62,0,1.13-0.15,1.55-0.44
		c0.42-0.29,0.63-0.77,0.63-1.43c0-0.32-0.06-0.59-0.17-0.8c-0.12-0.21-0.28-0.4-0.48-0.55c-0.21-0.15-0.44-0.28-0.71-0.37
		c-0.27-0.1-0.57-0.18-0.89-0.25c-0.44-0.1-0.86-0.22-1.26-0.36c-0.4-0.14-0.75-0.32-1.05-0.55c-0.3-0.23-0.54-0.52-0.72-0.88
		c-0.18-0.36-0.27-0.81-0.27-1.35c0-0.54,0.1-1.02,0.31-1.43c0.21-0.41,0.48-0.75,0.81-1.01c0.34-0.26,0.72-0.46,1.16-0.59
		c0.44-0.13,0.9-0.2,1.38-0.2c0.79,0,1.5,0.15,2.12,0.44c0.62,0.29,1.13,0.64,1.53,1.03l-0.99,1.01c-0.37-0.34-0.77-0.62-1.22-0.85
		c-0.45-0.22-0.95-0.34-1.5-0.34c-0.23,0-0.47,0.03-0.71,0.1c-0.24,0.07-0.46,0.16-0.65,0.3c-0.19,0.13-0.35,0.3-0.46,0.52
		c-0.12,0.21-0.17,0.47-0.17,0.78c0,0.32,0.06,0.59,0.19,0.8c0.12,0.21,0.29,0.39,0.5,0.54c0.21,0.15,0.46,0.27,0.75,0.36
		c0.29,0.1,0.58,0.19,0.89,0.27c0.4,0.12,0.79,0.25,1.19,0.4c0.4,0.15,0.75,0.34,1.07,0.57c0.31,0.23,0.57,0.53,0.77,0.89
		c0.2,0.36,0.3,0.82,0.3,1.37c0,0.54-0.1,1.02-0.29,1.43c-0.19,0.41-0.45,0.76-0.79,1.04c-0.34,0.29-0.74,0.5-1.21,0.65
		c-0.47,0.15-0.98,0.22-1.54,0.22c-0.44,0-0.86-0.04-1.25-0.11c-0.4-0.07-0.75-0.16-1.08-0.27c-0.32-0.11-0.6-0.22-0.82-0.34
		c-0.23-0.12-0.4-0.23-0.52-0.33L90.47,13.2"/>
	<path class="st0" d="M101.11,18.82h-1.71V4.61c1.54-0.44,2.86-0.66,3.97-0.66c1.74,0,3.01,0.47,3.8,1.42
		c0.79,0.94,1.19,2.35,1.19,4.23c0,1.92-0.4,3.38-1.19,4.38c-0.79,1-1.87,1.51-3.25,1.51c-0.56,0-1.08-0.08-1.56-0.23
		c-0.48-0.15-0.9-0.36-1.25-0.6V18.82 M106.64,9.81c0-0.63-0.05-1.21-0.14-1.76c-0.09-0.54-0.27-1.01-0.54-1.41
		c-0.26-0.4-0.62-0.7-1.07-0.92c-0.45-0.22-1.02-0.33-1.72-0.33c-0.38,0-0.75,0.03-1.1,0.1c-0.35,0.06-0.67,0.15-0.97,0.25v7.33
		c0.32,0.28,0.72,0.51,1.21,0.69c0.48,0.18,0.97,0.27,1.47,0.27c0.51,0,0.95-0.12,1.32-0.35c0.36-0.23,0.66-0.55,0.89-0.93
		c0.23-0.39,0.39-0.84,0.49-1.35C106.59,10.91,106.64,10.37,106.64,9.81z"/>
	<path class="st0" d="M115.36,3.95c1.02,0,1.81,0.25,2.37,0.75c0.56,0.5,0.83,1.16,0.83,1.98c0,0.54-0.1,1.01-0.3,1.41
		c-0.2,0.39-0.46,0.73-0.79,1.01c-0.33,0.28-0.71,0.51-1.13,0.69c-0.43,0.18-0.86,0.32-1.31,0.42c-0.45,0.1-0.89,0.16-1.33,0.2
		c-0.44,0.04-0.83,0.06-1.19,0.06c-0.12,0-0.22,0-0.31-0.01c-0.09-0.01-0.17-0.01-0.26-0.01c0.01,0.45,0.09,0.9,0.22,1.34
		c0.13,0.44,0.33,0.83,0.59,1.19c0.26,0.35,0.6,0.63,1,0.84c0.4,0.21,0.9,0.32,1.48,0.32c0.36,0,0.7-0.04,1-0.11
		c0.3-0.07,0.57-0.17,0.8-0.27c0.23-0.11,0.43-0.22,0.6-0.34c0.17-0.12,0.3-0.21,0.41-0.29l0.66,1.12c-0.13,0.12-0.31,0.25-0.54,0.4
		c-0.23,0.15-0.49,0.28-0.8,0.41c-0.31,0.13-0.65,0.23-1.02,0.32c-0.37,0.09-0.78,0.13-1.22,0.13c-0.86,0-1.6-0.14-2.22-0.42
		c-0.61-0.28-1.12-0.66-1.51-1.15c-0.4-0.49-0.68-1.08-0.87-1.77c-0.18-0.69-0.27-1.44-0.27-2.26c0-0.8,0.11-1.57,0.33-2.29
		c0.22-0.72,0.54-1.35,0.97-1.89c0.42-0.53,0.95-0.96,1.59-1.27C113.79,4.11,114.53,3.95,115.36,3.95 M116.97,6.87
		c0-0.51-0.16-0.91-0.47-1.21c-0.32-0.29-0.72-0.44-1.22-0.44c-0.59,0-1.09,0.13-1.5,0.37c-0.42,0.25-0.76,0.57-1.02,0.95
		c-0.26,0.39-0.46,0.81-0.58,1.27c-0.12,0.46-0.19,0.91-0.21,1.35c0.07,0,0.14,0,0.21,0.01c0.07,0.01,0.14,0.01,0.23,0.01
		c0.37,0,0.81-0.03,1.34-0.09c0.53-0.06,1.03-0.17,1.5-0.34c0.48-0.17,0.88-0.4,1.22-0.7C116.8,7.77,116.97,7.37,116.97,6.87z"/>
	<path class="st0" d="M125.22,3.95c1.02,0,1.81,0.25,2.37,0.75c0.56,0.5,0.83,1.16,0.83,1.98c0,0.54-0.1,1.01-0.3,1.41
		c-0.2,0.39-0.46,0.73-0.79,1.01c-0.33,0.28-0.71,0.51-1.13,0.69c-0.43,0.18-0.86,0.32-1.31,0.42c-0.45,0.1-0.89,0.16-1.33,0.2
		c-0.44,0.04-0.83,0.06-1.19,0.06c-0.12,0-0.22,0-0.31-0.01c-0.09-0.01-0.17-0.01-0.26-0.01c0.02,0.45,0.09,0.9,0.22,1.34
		c0.13,0.44,0.33,0.83,0.59,1.19c0.26,0.35,0.6,0.63,1,0.84c0.4,0.21,0.9,0.32,1.48,0.32c0.37,0,0.7-0.04,1-0.11
		c0.3-0.07,0.57-0.17,0.8-0.27c0.23-0.11,0.43-0.22,0.6-0.34c0.17-0.12,0.3-0.21,0.41-0.29l0.66,1.12c-0.13,0.12-0.31,0.25-0.54,0.4
		c-0.23,0.15-0.49,0.28-0.8,0.41c-0.31,0.13-0.65,0.23-1.02,0.32c-0.37,0.09-0.78,0.13-1.22,0.13c-0.86,0-1.6-0.14-2.22-0.42
		c-0.61-0.28-1.12-0.66-1.51-1.15c-0.39-0.49-0.69-1.08-0.87-1.77c-0.18-0.69-0.27-1.44-0.27-2.26c0-0.8,0.11-1.57,0.33-2.29
		c0.22-0.72,0.54-1.35,0.97-1.89c0.43-0.53,0.96-0.96,1.59-1.27C123.65,4.11,124.39,3.95,125.22,3.95 M126.82,6.87
		c0-0.51-0.16-0.91-0.47-1.21c-0.32-0.29-0.72-0.44-1.22-0.44c-0.59,0-1.09,0.13-1.51,0.37c-0.42,0.25-0.76,0.57-1.02,0.95
		c-0.26,0.39-0.46,0.81-0.58,1.27c-0.12,0.46-0.19,0.91-0.21,1.35c0.07,0,0.14,0,0.21,0.01c0.07,0.01,0.14,0.01,0.23,0.01
		c0.37,0,0.81-0.03,1.34-0.09c0.53-0.06,1.03-0.17,1.5-0.34c0.48-0.17,0.88-0.4,1.22-0.7C126.66,7.77,126.82,7.37,126.82,6.87z"/>
	<path class="st0" d="M135,14.07c0.95,0,1.85-0.34,2.7-1.01l0.72,1.12c-0.35,0.32-0.83,0.62-1.44,0.89
		c-0.61,0.27-1.31,0.41-2.12,0.41c-1.59,0-2.8-0.49-3.62-1.47c-0.82-0.98-1.23-2.42-1.23-4.3c0-1.11,0.15-2.04,0.46-2.78
		c0.31-0.74,0.69-1.33,1.16-1.77c0.47-0.44,0.98-0.75,1.55-0.93c0.56-0.18,1.1-0.27,1.61-0.27c0.64,0,1.31,0.13,2,0.4
		c0.69,0.26,1.29,0.78,1.8,1.54l-1.14,0.9c-0.38-0.5-0.79-0.86-1.22-1.09c-0.43-0.23-0.9-0.34-1.42-0.34
		c-0.89,0-1.63,0.34-2.22,1.03c-0.59,0.69-0.88,1.77-0.88,3.25c0,0.64,0.06,1.24,0.18,1.78c0.12,0.54,0.31,1.01,0.57,1.41
		c0.26,0.4,0.61,0.7,1.02,0.92C133.92,13.97,134.42,14.07,135,14.07"/>
	<path class="st0" d="M140.37,15.17V0.87h1.69V5.6c0.48-0.59,1.01-1.01,1.59-1.26c0.58-0.26,1.17-0.38,1.79-0.38
		c1.14,0,2.01,0.32,2.6,0.94c0.59,0.63,0.89,1.57,0.89,2.83v7.44h-1.71V8.19c0-0.38-0.03-0.75-0.08-1.1
		c-0.05-0.35-0.16-0.66-0.32-0.92c-0.16-0.26-0.39-0.47-0.68-0.63c-0.29-0.15-0.68-0.23-1.16-0.23c-0.4,0-0.77,0.08-1.13,0.24
		c-0.36,0.16-0.67,0.37-0.93,0.62c-0.26,0.25-0.47,0.54-0.63,0.87c-0.15,0.33-0.23,0.66-0.23,0.98v7.16H140.37"/>
	<path class="st1" d="M153.22,6.21l0.68-0.68c0.64,0.5,1.27,1,1.88,1.49c0.61,0.5,1.15,0.97,1.61,1.43
		c0.16,0.15,0.29,0.29,0.39,0.44c0.1,0.15,0.16,0.3,0.16,0.46c0,0.09-0.02,0.19-0.07,0.3c-0.04,0.11-0.12,0.25-0.24,0.43
		c-0.15,0.21-0.36,0.46-0.65,0.77c-0.29,0.31-0.6,0.63-0.93,0.97c-0.34,0.34-0.68,0.67-1.02,1c-0.34,0.33-0.65,0.61-0.91,0.85
		L153.4,13l2.81-3.62L153.22,6.21 M157.26,6.21l0.68-0.68c0.64,0.5,1.27,1,1.88,1.49c0.61,0.5,1.14,0.97,1.61,1.43
		c0.16,0.15,0.29,0.29,0.4,0.44c0.1,0.15,0.15,0.3,0.15,0.46c0,0.09-0.02,0.19-0.07,0.3c-0.04,0.11-0.12,0.25-0.24,0.43
		c-0.15,0.21-0.36,0.46-0.65,0.77c-0.29,0.31-0.6,0.63-0.93,0.97c-0.34,0.34-0.68,0.67-1.02,1c-0.34,0.33-0.65,0.61-0.91,0.85
		L157.44,13l2.81-3.62L157.26,6.21z"/>
</g>
</svg>
