<?xml version="1.0" encoding="utf-8"?>
<!-- Generator: Adobe Illustrator 23.0.2, SVG Export Plug-In . SVG Version: 6.00 Build 0)  -->
<svg version="1.1" id="Layer_1" xmlns="http://www.w3.org/2000/svg" xmlns:xlink="http://www.w3.org/1999/xlink" x="0px" y="0px"
	 viewBox="0 0 38 42" style="enable-background:new 0 0 38 42;" xml:space="preserve">
<style type="text/css">
	.st0{fill:#29B7EB;}
</style>
<path class="st0" d="M0,3.5L2.95,0c2.79,2.56,5.5,5.12,8.14,7.69c2.63,2.55,4.97,5,7,7.34c0.7,0.75,1.27,1.5,1.71,2.26
	c0.44,0.76,0.67,1.55,0.67,2.38c0,0.45-0.1,0.95-0.29,1.52c-0.19,0.57-0.54,1.3-1.05,2.2c-0.63,1.06-1.57,2.38-2.81,3.96
	c-1.24,1.58-2.59,3.25-4.05,4.97c-1.46,1.74-2.93,3.45-4.43,5.14c-1.49,1.7-2.81,3.15-3.95,4.36l-3.15-3.39l12.2-18.64L0,3.5
	 M17.52,3.5L20.48,0c2.79,2.56,5.51,5.12,8.14,7.69c2.63,2.55,4.97,5,7,7.34c0.7,0.75,1.27,1.5,1.71,2.26
	c0.45,0.76,0.67,1.55,0.67,2.38c0,0.45-0.1,0.95-0.29,1.52c-0.18,0.57-0.54,1.3-1.05,2.2c-0.64,1.06-1.57,2.38-2.8,3.96
	c-1.24,1.58-2.59,3.25-4.05,4.97c-1.46,1.74-2.93,3.45-4.43,5.14c-1.49,1.7-2.81,3.15-3.95,4.36l-3.14-3.39l12.19-18.64L17.52,3.5z"
	/>
</svg>
