<?xml version="1.0" encoding="utf-8"?>
<!-- Generator: Adobe Illustrator 23.0.2, SVG Export Plug-In . SVG Version: 6.00 Build 0)  -->
<svg version="1.1" id="Layer_1" xmlns="http://www.w3.org/2000/svg" xmlns:xlink="http://www.w3.org/1999/xlink" x="0px" y="0px"
	 viewBox="0 0 38 42" style="enable-background:new 0 0 38 42;" xml:space="preserve">
<style type="text/css">
	.st0{fill:#29B7EB;}
</style>
<path class="st0" d="M38,3.5L25.05,19.77l12.2,18.64l-3.15,3.39c-1.14-1.21-2.46-2.66-3.95-4.36c-1.49-1.69-2.97-3.4-4.43-5.14
	c-1.46-1.72-2.81-3.39-4.05-4.97c-1.24-1.58-2.17-2.9-2.81-3.96c-0.51-0.89-0.86-1.63-1.05-2.2c-0.19-0.57-0.29-1.07-0.29-1.52
	c0-0.82,0.22-1.62,0.67-2.38c0.45-0.75,1.02-1.5,1.71-2.26c2.03-2.33,4.37-4.79,7-7.34c2.64-2.57,5.35-5.12,8.14-7.69L38,3.5
	 M7.52,19.77l12.19,18.64l-3.14,3.39c-1.14-1.21-2.46-2.66-3.95-4.36c-1.49-1.69-2.97-3.4-4.43-5.14c-1.47-1.72-2.81-3.39-4.05-4.97
	c-1.24-1.58-2.16-2.9-2.8-3.96c-0.51-0.89-0.86-1.63-1.05-2.2C0.1,20.61,0,20.11,0,19.66c0-0.82,0.22-1.62,0.67-2.38
	c0.45-0.75,1.02-1.5,1.71-2.26c2.03-2.33,4.36-4.79,7-7.34c2.63-2.57,5.35-5.12,8.14-7.69l2.95,3.5L7.52,19.77z"/>
</svg>
